<mxfile host="app.diagrams.net" agent="Mozilla/5.0 (Windows NT 10.0; Win64; x64) AppleWebKit/537.36 (KHTML, like Gecko) Chrome/129.0.0.0 Safari/537.36" version="24.7.17">
  <diagram id="C5RBs43oDa-KdzZeNtuy" name="Page-1">
    <mxGraphModel dx="835" dy="648" grid="1" gridSize="10" guides="1" tooltips="1" connect="1" arrows="1" fold="1" page="1" pageScale="1" pageWidth="827" pageHeight="1169" math="0" shadow="0">
      <root>
        <mxCell id="WIyWlLk6GJQsqaUBKTNV-0" />
        <mxCell id="WIyWlLk6GJQsqaUBKTNV-1" parent="WIyWlLk6GJQsqaUBKTNV-0" />
        <mxCell id="HkjAfdq2GsZhHfLgqDwS-1" value="Inicio" style="strokeWidth=2;html=1;shape=mxgraph.flowchart.start_2;whiteSpace=wrap;" vertex="1" parent="WIyWlLk6GJQsqaUBKTNV-1">
          <mxGeometry x="230" y="275" width="50" height="50" as="geometry" />
        </mxCell>
        <mxCell id="HkjAfdq2GsZhHfLgqDwS-2" value="Entro a inicio" style="strokeWidth=2;html=1;shape=mxgraph.flowchart.terminator;whiteSpace=wrap;" vertex="1" parent="WIyWlLk6GJQsqaUBKTNV-1">
          <mxGeometry x="370" y="270" width="110" height="60" as="geometry" />
        </mxCell>
        <mxCell id="HkjAfdq2GsZhHfLgqDwS-3" value="" style="rounded=0;html=1;jettySize=auto;orthogonalLoop=1;fontSize=11;endArrow=block;endFill=0;endSize=8;strokeWidth=1;shadow=0;labelBackgroundColor=none;edgeStyle=orthogonalEdgeStyle;entryX=0;entryY=0.5;entryDx=0;entryDy=0;entryPerimeter=0;exitX=1;exitY=0.5;exitDx=0;exitDy=0;exitPerimeter=0;" edge="1" parent="WIyWlLk6GJQsqaUBKTNV-1" source="HkjAfdq2GsZhHfLgqDwS-1" target="HkjAfdq2GsZhHfLgqDwS-2">
          <mxGeometry relative="1" as="geometry">
            <mxPoint x="585" y="760" as="sourcePoint" />
            <mxPoint x="585" y="810" as="targetPoint" />
          </mxGeometry>
        </mxCell>
        <mxCell id="HkjAfdq2GsZhHfLgqDwS-5" value="" style="rounded=0;html=1;jettySize=auto;orthogonalLoop=1;fontSize=11;endArrow=block;endFill=0;endSize=8;strokeWidth=1;shadow=0;labelBackgroundColor=none;edgeStyle=orthogonalEdgeStyle;exitX=0.5;exitY=1;exitDx=0;exitDy=0;exitPerimeter=0;entryX=0;entryY=0.5;entryDx=0;entryDy=0;" edge="1" parent="WIyWlLk6GJQsqaUBKTNV-1" source="HkjAfdq2GsZhHfLgqDwS-2" target="HkjAfdq2GsZhHfLgqDwS-57">
          <mxGeometry relative="1" as="geometry">
            <mxPoint x="415" y="335" as="sourcePoint" />
            <mxPoint x="420" y="380" as="targetPoint" />
            <Array as="points">
              <mxPoint x="425" y="350" />
              <mxPoint x="540" y="350" />
              <mxPoint x="540" y="315" />
            </Array>
          </mxGeometry>
        </mxCell>
        <mxCell id="HkjAfdq2GsZhHfLgqDwS-57" value="Deseo agendar una cita" style="rhombus;whiteSpace=wrap;html=1;" vertex="1" parent="WIyWlLk6GJQsqaUBKTNV-1">
          <mxGeometry x="600" y="275" width="80" height="80" as="geometry" />
        </mxCell>
        <mxCell id="HkjAfdq2GsZhHfLgqDwS-60" value="" style="rounded=0;html=1;jettySize=auto;orthogonalLoop=1;fontSize=11;endArrow=block;endFill=0;endSize=8;strokeWidth=1;shadow=0;labelBackgroundColor=none;edgeStyle=orthogonalEdgeStyle;exitX=0.5;exitY=1;exitDx=0;exitDy=0;entryX=0.61;entryY=0.016;entryDx=0;entryDy=0;entryPerimeter=0;" edge="1" parent="WIyWlLk6GJQsqaUBKTNV-1" source="HkjAfdq2GsZhHfLgqDwS-57" target="HkjAfdq2GsZhHfLgqDwS-65">
          <mxGeometry relative="1" as="geometry">
            <mxPoint x="600" y="285" as="sourcePoint" />
            <mxPoint x="591.625" y="486.94000000000005" as="targetPoint" />
          </mxGeometry>
        </mxCell>
        <mxCell id="HkjAfdq2GsZhHfLgqDwS-61" value="Si" style="edgeLabel;html=1;align=center;verticalAlign=middle;resizable=0;points=[];" vertex="1" connectable="0" parent="HkjAfdq2GsZhHfLgqDwS-60">
          <mxGeometry x="-0.1984" relative="1" as="geometry">
            <mxPoint x="-1" y="-7" as="offset" />
          </mxGeometry>
        </mxCell>
        <mxCell id="HkjAfdq2GsZhHfLgqDwS-62" value="" style="rounded=0;html=1;jettySize=auto;orthogonalLoop=1;fontSize=11;endArrow=block;endFill=0;endSize=8;strokeWidth=1;shadow=0;labelBackgroundColor=none;edgeStyle=orthogonalEdgeStyle;exitX=1;exitY=0.5;exitDx=0;exitDy=0;entryX=1;entryY=0.5;entryDx=0;entryDy=0;entryPerimeter=0;" edge="1" parent="WIyWlLk6GJQsqaUBKTNV-1" source="HkjAfdq2GsZhHfLgqDwS-57" target="HkjAfdq2GsZhHfLgqDwS-2">
          <mxGeometry relative="1" as="geometry">
            <mxPoint x="523" y="398" as="sourcePoint" />
            <mxPoint x="495" y="525" as="targetPoint" />
            <Array as="points">
              <mxPoint x="680" y="240" />
              <mxPoint x="505" y="240" />
              <mxPoint x="505" y="300" />
            </Array>
          </mxGeometry>
        </mxCell>
        <mxCell id="HkjAfdq2GsZhHfLgqDwS-63" value="No" style="edgeLabel;html=1;align=center;verticalAlign=middle;resizable=0;points=[];" vertex="1" connectable="0" parent="HkjAfdq2GsZhHfLgqDwS-62">
          <mxGeometry x="-0.1984" relative="1" as="geometry">
            <mxPoint x="-1" y="-7" as="offset" />
          </mxGeometry>
        </mxCell>
        <mxCell id="HkjAfdq2GsZhHfLgqDwS-65" value="Presiono el boton Comenzar" style="strokeWidth=2;html=1;shape=mxgraph.flowchart.terminator;whiteSpace=wrap;" vertex="1" parent="WIyWlLk6GJQsqaUBKTNV-1">
          <mxGeometry x="572.5" y="400" width="110" height="60" as="geometry" />
        </mxCell>
        <mxCell id="HkjAfdq2GsZhHfLgqDwS-67" value="Ingreso datos formulario agendar cita" style="html=1;strokeWidth=2;shape=manualInput;whiteSpace=wrap;rounded=1;size=26;arcSize=11;" vertex="1" parent="WIyWlLk6GJQsqaUBKTNV-1">
          <mxGeometry x="400" y="370" width="120" height="90" as="geometry" />
        </mxCell>
        <mxCell id="HkjAfdq2GsZhHfLgqDwS-68" value="" style="rounded=0;html=1;jettySize=auto;orthogonalLoop=1;fontSize=11;endArrow=block;endFill=0;endSize=8;strokeWidth=1;shadow=0;labelBackgroundColor=none;edgeStyle=orthogonalEdgeStyle;entryX=0.992;entryY=0.547;entryDx=0;entryDy=0;exitX=0.016;exitY=0.325;exitDx=0;exitDy=0;exitPerimeter=0;entryPerimeter=0;" edge="1" parent="WIyWlLk6GJQsqaUBKTNV-1" source="HkjAfdq2GsZhHfLgqDwS-65" target="HkjAfdq2GsZhHfLgqDwS-67">
          <mxGeometry relative="1" as="geometry">
            <mxPoint x="455" y="255" as="sourcePoint" />
            <mxPoint x="545" y="255" as="targetPoint" />
          </mxGeometry>
        </mxCell>
        <mxCell id="HkjAfdq2GsZhHfLgqDwS-69" value="Los datos ingresados son correctos" style="rhombus;whiteSpace=wrap;html=1;" vertex="1" parent="WIyWlLk6GJQsqaUBKTNV-1">
          <mxGeometry x="250" y="425" width="110" height="90" as="geometry" />
        </mxCell>
        <mxCell id="HkjAfdq2GsZhHfLgqDwS-70" value="" style="rounded=0;html=1;jettySize=auto;orthogonalLoop=1;fontSize=11;endArrow=block;endFill=0;endSize=8;strokeWidth=1;shadow=0;labelBackgroundColor=none;edgeStyle=orthogonalEdgeStyle;exitX=0.5;exitY=1;exitDx=0;exitDy=0;entryX=1;entryY=0.5;entryDx=0;entryDy=0;" edge="1" parent="WIyWlLk6GJQsqaUBKTNV-1" source="HkjAfdq2GsZhHfLgqDwS-67" target="HkjAfdq2GsZhHfLgqDwS-69">
          <mxGeometry relative="1" as="geometry">
            <mxPoint x="305" y="310" as="sourcePoint" />
            <mxPoint x="421" y="357" as="targetPoint" />
            <Array as="points">
              <mxPoint x="460" y="470" />
            </Array>
          </mxGeometry>
        </mxCell>
        <mxCell id="HkjAfdq2GsZhHfLgqDwS-72" value="" style="rounded=0;html=1;jettySize=auto;orthogonalLoop=1;fontSize=11;endArrow=block;endFill=0;endSize=8;strokeWidth=1;shadow=0;labelBackgroundColor=none;edgeStyle=orthogonalEdgeStyle;exitX=0.5;exitY=0;exitDx=0;exitDy=0;entryX=0.546;entryY=0.16;entryDx=0;entryDy=0;entryPerimeter=0;" edge="1" parent="WIyWlLk6GJQsqaUBKTNV-1" source="HkjAfdq2GsZhHfLgqDwS-69" target="HkjAfdq2GsZhHfLgqDwS-67">
          <mxGeometry relative="1" as="geometry">
            <mxPoint x="360" y="515" as="sourcePoint" />
            <mxPoint x="280" y="515" as="targetPoint" />
          </mxGeometry>
        </mxCell>
        <mxCell id="HkjAfdq2GsZhHfLgqDwS-73" value="No" style="edgeLabel;html=1;align=center;verticalAlign=middle;resizable=0;points=[];" vertex="1" connectable="0" parent="HkjAfdq2GsZhHfLgqDwS-72">
          <mxGeometry x="-0.1984" relative="1" as="geometry">
            <mxPoint x="-1" y="-7" as="offset" />
          </mxGeometry>
        </mxCell>
        <mxCell id="HkjAfdq2GsZhHfLgqDwS-74" value="" style="rounded=0;html=1;jettySize=auto;orthogonalLoop=1;fontSize=11;endArrow=block;endFill=0;endSize=8;strokeWidth=1;shadow=0;labelBackgroundColor=none;edgeStyle=orthogonalEdgeStyle;exitX=0.5;exitY=1;exitDx=0;exitDy=0;entryX=0.4;entryY=0.317;entryDx=0;entryDy=0;entryPerimeter=0;" edge="1" parent="WIyWlLk6GJQsqaUBKTNV-1" source="HkjAfdq2GsZhHfLgqDwS-69" target="HkjAfdq2GsZhHfLgqDwS-76">
          <mxGeometry relative="1" as="geometry">
            <mxPoint x="540" y="640" as="sourcePoint" />
            <mxPoint x="320" y="560" as="targetPoint" />
          </mxGeometry>
        </mxCell>
        <mxCell id="HkjAfdq2GsZhHfLgqDwS-75" value="Si" style="edgeLabel;html=1;align=center;verticalAlign=middle;resizable=0;points=[];" vertex="1" connectable="0" parent="HkjAfdq2GsZhHfLgqDwS-74">
          <mxGeometry x="-0.1984" relative="1" as="geometry">
            <mxPoint x="-1" y="-7" as="offset" />
          </mxGeometry>
        </mxCell>
        <mxCell id="HkjAfdq2GsZhHfLgqDwS-76" value="Ingreso tipo de pago" style="html=1;strokeWidth=2;shape=manualInput;whiteSpace=wrap;rounded=1;size=26;arcSize=11;" vertex="1" parent="WIyWlLk6GJQsqaUBKTNV-1">
          <mxGeometry x="250" y="555" width="135" height="60" as="geometry" />
        </mxCell>
        <mxCell id="HkjAfdq2GsZhHfLgqDwS-80" value="Mis datos son correctos" style="rhombus;whiteSpace=wrap;html=1;" vertex="1" parent="WIyWlLk6GJQsqaUBKTNV-1">
          <mxGeometry x="472.5" y="660" width="100" height="90" as="geometry" />
        </mxCell>
        <mxCell id="HkjAfdq2GsZhHfLgqDwS-82" value="" style="rounded=0;html=1;jettySize=auto;orthogonalLoop=1;fontSize=11;endArrow=block;endFill=0;endSize=8;strokeWidth=1;shadow=0;labelBackgroundColor=none;edgeStyle=orthogonalEdgeStyle;exitX=0.987;exitY=0.344;exitDx=0;exitDy=0;exitPerimeter=0;" edge="1" parent="WIyWlLk6GJQsqaUBKTNV-1" source="HkjAfdq2GsZhHfLgqDwS-76" target="HkjAfdq2GsZhHfLgqDwS-79">
          <mxGeometry relative="1" as="geometry">
            <mxPoint x="282" y="667" as="sourcePoint" />
            <mxPoint x="290" y="540" as="targetPoint" />
          </mxGeometry>
        </mxCell>
        <mxCell id="HkjAfdq2GsZhHfLgqDwS-79" value="Ingreso mis datos bancarios" style="html=1;strokeWidth=2;shape=manualInput;whiteSpace=wrap;rounded=1;size=26;arcSize=11;" vertex="1" parent="WIyWlLk6GJQsqaUBKTNV-1">
          <mxGeometry x="450" y="540" width="145" height="70" as="geometry" />
        </mxCell>
        <mxCell id="HkjAfdq2GsZhHfLgqDwS-84" value="" style="rounded=0;html=1;jettySize=auto;orthogonalLoop=1;fontSize=11;endArrow=block;endFill=0;endSize=8;strokeWidth=1;shadow=0;labelBackgroundColor=none;edgeStyle=orthogonalEdgeStyle;exitX=0.5;exitY=1;exitDx=0;exitDy=0;" edge="1" parent="WIyWlLk6GJQsqaUBKTNV-1" source="HkjAfdq2GsZhHfLgqDwS-79" target="HkjAfdq2GsZhHfLgqDwS-80">
          <mxGeometry relative="1" as="geometry">
            <mxPoint x="754.5" y="707" as="sourcePoint" />
            <mxPoint x="755.5" y="630" as="targetPoint" />
          </mxGeometry>
        </mxCell>
        <mxCell id="HkjAfdq2GsZhHfLgqDwS-86" value="" style="rounded=0;html=1;jettySize=auto;orthogonalLoop=1;fontSize=11;endArrow=block;endFill=0;endSize=8;strokeWidth=1;shadow=0;labelBackgroundColor=none;edgeStyle=orthogonalEdgeStyle;exitX=0.497;exitY=0.993;exitDx=0;exitDy=0;exitPerimeter=0;" edge="1" parent="WIyWlLk6GJQsqaUBKTNV-1" source="HkjAfdq2GsZhHfLgqDwS-80">
          <mxGeometry relative="1" as="geometry">
            <mxPoint x="524.25" y="750.0000000000001" as="sourcePoint" />
            <mxPoint x="521.75" y="800" as="targetPoint" />
            <Array as="points">
              <mxPoint x="522" y="749" />
            </Array>
          </mxGeometry>
        </mxCell>
        <mxCell id="HkjAfdq2GsZhHfLgqDwS-88" value="Si" style="edgeLabel;html=1;align=center;verticalAlign=middle;resizable=0;points=[];" vertex="1" connectable="0" parent="HkjAfdq2GsZhHfLgqDwS-86">
          <mxGeometry x="-0.2876" y="-1" relative="1" as="geometry">
            <mxPoint as="offset" />
          </mxGeometry>
        </mxCell>
        <mxCell id="HkjAfdq2GsZhHfLgqDwS-87" value="Pago realizado correctamente" style="html=1;strokeWidth=2;shape=manualInput;whiteSpace=wrap;rounded=1;size=26;arcSize=11;" vertex="1" parent="WIyWlLk6GJQsqaUBKTNV-1">
          <mxGeometry x="462.5" y="790" width="120" height="70" as="geometry" />
        </mxCell>
        <mxCell id="HkjAfdq2GsZhHfLgqDwS-89" value="" style="rounded=0;html=1;jettySize=auto;orthogonalLoop=1;fontSize=11;endArrow=block;endFill=0;endSize=8;strokeWidth=1;shadow=0;labelBackgroundColor=none;edgeStyle=orthogonalEdgeStyle;exitX=1;exitY=0.5;exitDx=0;exitDy=0;entryX=1.012;entryY=0.555;entryDx=0;entryDy=0;entryPerimeter=0;" edge="1" parent="WIyWlLk6GJQsqaUBKTNV-1" source="HkjAfdq2GsZhHfLgqDwS-80" target="HkjAfdq2GsZhHfLgqDwS-79">
          <mxGeometry relative="1" as="geometry">
            <mxPoint x="533" y="760" as="sourcePoint" />
            <mxPoint x="530" y="810" as="targetPoint" />
            <Array as="points">
              <mxPoint x="640" y="705" />
              <mxPoint x="640" y="579" />
            </Array>
          </mxGeometry>
        </mxCell>
        <mxCell id="HkjAfdq2GsZhHfLgqDwS-90" value="No" style="edgeLabel;html=1;align=center;verticalAlign=middle;resizable=0;points=[];" vertex="1" connectable="0" parent="HkjAfdq2GsZhHfLgqDwS-89">
          <mxGeometry x="-0.2876" y="-1" relative="1" as="geometry">
            <mxPoint as="offset" />
          </mxGeometry>
        </mxCell>
        <mxCell id="HkjAfdq2GsZhHfLgqDwS-91" value="" style="verticalLabelPosition=bottom;verticalAlign=top;html=1;shape=offPageConnector;rounded=0;size=0.5;" vertex="1" parent="WIyWlLk6GJQsqaUBKTNV-1">
          <mxGeometry x="492.5" y="910" width="60" height="60" as="geometry" />
        </mxCell>
        <mxCell id="HkjAfdq2GsZhHfLgqDwS-92" value="" style="rounded=0;html=1;jettySize=auto;orthogonalLoop=1;fontSize=11;endArrow=block;endFill=0;endSize=8;strokeWidth=1;shadow=0;labelBackgroundColor=none;edgeStyle=orthogonalEdgeStyle;exitX=0.5;exitY=1;exitDx=0;exitDy=0;entryX=0.5;entryY=0;entryDx=0;entryDy=0;" edge="1" parent="WIyWlLk6GJQsqaUBKTNV-1" source="HkjAfdq2GsZhHfLgqDwS-87" target="HkjAfdq2GsZhHfLgqDwS-91">
          <mxGeometry relative="1" as="geometry">
            <mxPoint x="533" y="760" as="sourcePoint" />
            <mxPoint x="530" y="810" as="targetPoint" />
            <Array as="points">
              <mxPoint x="523" y="880" />
              <mxPoint x="522" y="880" />
            </Array>
          </mxGeometry>
        </mxCell>
        <mxCell id="HkjAfdq2GsZhHfLgqDwS-94" value="Fin flujo" style="text;html=1;align=center;verticalAlign=middle;whiteSpace=wrap;rounded=0;" vertex="1" parent="WIyWlLk6GJQsqaUBKTNV-1">
          <mxGeometry x="493" y="970" width="60" height="30" as="geometry" />
        </mxCell>
      </root>
    </mxGraphModel>
  </diagram>
</mxfile>
